Coordinates
version=1
nRows=12
nColumns=42
inDegrees=yes
Units are S.I. units (second, meters, Newtons, ...)
If the header above contains a line with 'inDegrees', this indicates whether rotational values are in degrees (yes) or radians (no).
endheader
time	pelvis_tilt	pelvis_list	pelvis_rotation	pelvis_tx	pelvis_ty	pelvis_tz	hip_flexion_r	hip_adduction_r	hip_rotation_r	knee_angle_r	knee_adduction_r	knee_angle_r_beta	ankle_angle_r	subtalar_angle_r	mtp_angle_r	hip_flexion_l	hip_adduction_l	hip_rotation_l	knee_angle_l	knee_adduction_l	knee_angle_l_beta	ankle_angle_l	subtalar_angle_l	mtp_angle_l	lumbar_extension	lumbar_bending	lumbar_rotation	arm_flex_r	arm_add_r	arm_rot_r	elbow_flex_r	pro_sup_r	wrist_flex_r	wrist_dev_r	arm_flex_l	arm_add_l	arm_rot_l	elbow_flex_l	pro_sup_l	wrist_flex_l	wrist_dev_l
    1.16000000000000	    5.60079715768134	   -4.71410396565863	    3.94300042939887	    0.42357774193803	    1.00597879616123	    0.29630187081684	   71.84551317166533	   -1.99014742459927	    1.16198959605796	   89.45020454072449	    5.85288448000000	    1.56120058542526	  -37.91618545635244	   -6.36315202314964	    0.00000000000000	    3.96493020659321	   -5.66505815702853	  -11.20735070170682	   16.83599674662425	    4.70865390000000	    0.29384357707172	    0.75472319737389	    3.04498469317055	  -10.00000000000000	  -31.45196348865960	   14.16741296242494	    4.97340050507824	   -8.64847252316981	  -10.81210207498083	  -26.37149924533027	   63.46409831969028	   90.00000000999999	    0.00000000000000	    0.00000000000000	   -9.54671795674923	  -30.85974971138481	  -18.70365868954749	   93.91727611299585	   90.00000000999999	    0.00000000000000	    0.00000000000000	
    1.16500000000000	    5.23912925131615	   -4.69899409771291	    4.06730842459135	    0.42578798082338	    1.00560457519407	    0.29704145979357	   71.00444124903785	   -1.97429711630114	    1.20304800699783	   89.46691937892959	    5.85288448000000	    1.56149231437059	  -37.90926271825664	   -6.38673478648766	    0.00000000000000	    4.11815150377405	   -5.64833712887576	  -11.08261413567064	   16.62342705136276	    4.70865390000000	    0.29013353592857	    0.88788919220843	    3.14198827193376	  -10.00000000000000	  -30.74269860277077	   13.99930844544664	    4.81162468927049	   -8.51204665451920	  -11.03569330931716	  -26.41338108214437	   63.81890424767672	   90.00000000999999	    0.00000000000000	    0.00000000000000	  -10.18790261804389	  -30.67277746026005	  -19.45794505674167	   93.03473983136811	   90.00000000999999	    0.00000000000000	    0.00000000000000	
    1.17000000000000	    4.87465253706366	   -4.68872685849954	    4.18318872136920	    0.42797146201562	    1.00520110833787	    0.29778946151147	   70.17153772999092	   -1.95696690288364	    1.23347277939741	   89.46246381470496	    5.85288448000000	    1.56141455010579	  -37.89703878267883	   -6.40430672922801	    0.00000000000000	    4.28031899286820	   -5.63770389885452	  -10.96101316277228	   16.42074211980397	    4.70865390000000	    0.28659601646208	    1.02741385616776	    3.23389923626467	  -10.00000000000000	  -30.04239284855982	   13.83471071181217	    4.66275802454379	   -8.37400103361758	  -11.25162354758075	  -26.46093301947909	   64.17402691139536	   90.00000000999999	    0.00000000000000	    0.00000000000000	  -10.81713334816686	  -30.47752349580895	  -20.21626936561121	   92.17352360040719	   90.00000000999999	    0.00000000000000	    0.00000000000000	
    1.17500000000000	    4.50817607862763	   -4.68362427814160	    4.28919714461079	    0.43012860653024	    1.00477155571447	    0.29854754761640	   69.34771914475805	   -1.93609553319388	    1.25490913214363	   89.43730762470526	    5.85288448000000	    1.56097549177920	  -37.88065332250208	   -6.41544749364362	    0.00000000000000	    4.45003447233048	   -5.63377865611315	  -10.84382696833821	   16.22746327945583	    4.70865390000000	    0.28322266426124	    1.17305512050311	    3.32064874519253	  -10.00000000000000	  -29.35237838626169	   13.67372772436805	    4.52864820142568	   -8.23477355455893	  -11.46047465460094	  -26.51293876575068	   64.52920719462493	   90.00000000999999	    0.00000000000000	    0.00000000000000	  -11.43367959504504	  -30.27428331638127	  -20.97657400718168	   91.33223289251553	   90.00000000999999	    0.00000000000000	    0.00000000000000	
    1.18000000000000	    4.14064059682713	   -4.68386905034867	    4.38391998171857	    0.43225981160725	    1.00431928177904	    0.29931736663133	   68.53365181820028	   -1.90970687558780	    1.26925608441735	   89.39192145523563	    5.85288448000000	    1.56018335371696	  -37.86139806384683	   -6.41995505941079	    0.00000000000000	    4.62564015980261	   -5.63702154992933	  -10.73244384408737	   16.04293191307639	    4.70865390000000	    0.28000198428626	    1.32453248793133	    3.40230652071967	  -10.00000000000000	  -28.67404920875303	   13.51636707271559	    4.41104232442909	   -8.09477959302498	  -11.66286451204269	  -26.56808370662712	   64.88410592674298	   90.00000000999999	    0.00000000000000	    0.00000000000000	  -12.03665205115112	  -30.06330904074602	  -21.73665171963304	   90.50910866160569	   90.00000000999999	    0.00000000000000	    0.00000000000000	
    1.18500000000000	    3.77308611729625	   -4.68950079996800	    4.46601108497595	    0.43436545153850	    1.00384777828139	    0.30010050461983	   67.72978265905350	   -1.87597160703353	    1.27862096257700	   89.32677977446795	    5.85288448000000	    1.55904641694902	  -37.84069843771118	   -6.41785478681127	    0.00000000000000	    4.80527317480418	   -5.64772435950028	  -10.62832162313785	   15.86633029722135	    4.70865390000000	    0.27691970456979	    1.48152732650255	    3.47906752268611	  -10.00000000000000	  -28.00881935907132	   13.36254710538500	    4.31152578438485	   -7.95439454708404	  -11.85941777153477	  -26.62498580470913	   65.23830427137824	   90.00000000999999	    0.00000000000000	    0.00000000000000	  -12.62506484884515	  -29.84481510392807	  -22.49418606981001	   89.70214079053360	   90.00000000999999	    0.00000000000000	    0.00000000000000	
    1.19000000000000	    3.40661677055799	   -4.70041790927466	    4.53422706689488	    0.43644587318130	    1.00336058373215	    0.30089845035427	   66.93637321876314	   -1.83326384142141	    1.28526713790470	   89.24236178309687	    5.85288448000000	    1.55757304510316	  -37.82008234093399	   -6.40939785998736	    0.00000000000000	    4.98692624336725	   -5.66600842729517	  -10.53294559861285	   15.69670696984896	    4.70865390000000	    0.27395921896530	    1.64368416921465	    3.55123612746493	  -10.00000000000000	  -27.35808155082620	   13.21211005073794	    4.23146695105985	   -7.81393946744996	  -12.05073866642576	  -26.68222332682859	   65.59130907553248	   90.00000000999999	    0.00000000000000	    0.00000000000000	  -13.19789866957527	  -29.61898511713033	  -23.24679163392232	   88.90918360894696	   90.00000000999999	    0.00000000000000	    0.00000000000000	
    1.19500000000000	    3.04236455325483	   -4.71638445623887	    4.58745925996545	    0.43850138768151	    1.00286120230593	    0.30171256524590	   66.15353536747844	   -1.78021085401240	    1.29155725559536	   89.13915082518541	    5.85288448000000	    1.55577167412246	  -37.80113641250544	   -6.39504888901879	    0.00000000000000	    5.16851141726192	   -5.69182843501502	  -10.44778546155649	   15.53300521054650	    4.70865390000000	    0.27110208422089	    1.81061326509691	    3.61920901903622	  -10.00000000000000	  -26.72316783010705	   13.06483657677351	    4.17196963567628	   -7.67367030595302	  -12.23738668309015	  -26.73835930248966	   65.94256282017017	   90.00000000999999	    0.00000000000000	    0.00000000000000	  -13.75416213535773	  -29.38597980200480	  -23.99205214434371	   88.12806860817791	   90.00000000999999	    0.00000000000000	    0.00000000000000	
    1.20000000000000	    2.68145387369569	   -4.73704157310916	    4.62476111401769	    0.44053226048347	    1.00235302527093	    0.30254405800771	   65.38126688554021	   -1.71573423785615	    1.29989438570130	   89.01763285200568	    5.85288448000000	    1.55365078545439	  -37.78545073078425	   -6.37546287353369	    0.00000000000000	    5.34792342546078	   -5.72498132135091	  -10.37425301838148	   15.37409301079754	    4.70865390000000	    0.26832854305924	    1.98189450684809	    3.68345783258865	  -10.00000000000000	  -26.10531380251417	   12.92046113529634	    4.13383511395607	   -7.53377127430587	  -12.41985581695246	  -26.79196283874915	   66.29145771367773	   90.00000000999999	    0.00000000000000	    0.00000000000000	  -14.29294891332313	  -29.14594584782007	  -24.72755509105177	   87.35670959532425	   90.00000000999999	    0.00000000000000	    0.00000000000000	
    1.20500000000000	    2.32496859152400	   -4.76192238886834	    4.64536991330427	    0.44253870185343	    1.00183925790309	    0.30339396375408	   64.61948535077640	   -1.63908118809494	    1.31266347565569	   88.87829447542018	    5.85288448000000	    1.55121887207596	  -37.77455318392347	   -6.35145211710250	    0.00000000000000	    5.52309943778334	   -5.76511947620333	  -10.31366248925575	   15.21879293910857	    4.70865390000000	    0.26561804542259	    2.15708275467910	    3.74451236827872	  -10.00000000000000	  -25.50562773742050	   12.77868746109404	    4.11753506437351	   -7.39435267642796	  -12.59855804943663	  -26.84162746173723	   66.63735340439548	   90.00000000999999	    0.00000000000000	    0.00000000000000	  -14.81348824127407	  -28.89902543832826	  -25.45092178144302	   86.59319588836331	   90.00000000999999	    0.00000000000000	    0.00000000000000	
    1.21000000000000	    1.97392298894160	   -4.79046970624717	    4.64872211278399	    0.44452085973754	    1.00132285440870	    0.30426312703531	   63.86805894385037	   -1.54984511265832	    1.33217519088836	   88.72162106895837	    5.85288448000000	    1.54848440535140	  -37.76983507594890	   -6.32394406458457	    0.00000000000000	    5.69207258656250	   -5.81176733281779	  -10.26719498752842	   15.06591059525948	    4.70865390000000	    0.26294974509319	    2.33571449350464	    3.80294494718057	  -10.00000000000000	  -24.92506554552962	   12.63920375430250	    4.12319612691521	   -7.25545331898138	  -12.77381152708837	  -26.88598663161011	   66.97959768990728	   90.00000000999999	    0.00000000000000	    0.00000000000000	  -15.31518701198694	  -28.64536609494780	  -26.15983250144047	   85.83586984329074	   90.00000000999999	    0.00000000000000	    0.00000000000000	
    1.21500000000000	    1.62923769021222	   -4.82205568884976	    4.63446214456422	    0.44647881585824	    1.00080646272765	    0.30515218821850	   63.12683318935629	   -1.44797532086822	    1.36061372789032	   88.54809521894350	    5.85288448000000	    1.54545580799928	  -37.77246997310171	   -6.29393146967789	    0.00000000000000	    5.85301750686264	   -5.86434062184375	  -10.23586834532952	   14.91426084334508	    4.70865390000000	    0.26030295754640	    2.51731568201643	    3.85935622271638	  -10.00000000000000	  -24.36441223003317	   12.50169734136695	    4.15059608300464	   -7.11704725143294	  -12.94583369022667	  -26.92372659981824	   67.31754944304070	   90.00000000999999	    0.00000000000000	    0.00000000000000	  -15.79766201211633	  -28.38513041399679	  -26.85204695760178	   85.08338598732644	   90.00000000999999	    0.00000000000000	    0.00000000000000	
